<svg xmlns="http://www.w3.org/2000/svg" width="25.069" height="28.946" viewBox="0 0 25.069 28.946">
  <g id="Group_5" data-name="Group 5" transform="translate(-11.377 -0.054)">
    <path id="Path_2" data-name="Path 2" d="M21.98,14.5H19.666V11.516l2.582-1.491,1.157,2-1.425.823Z" transform="translate(-8.289 -4.225)" fill="#c0ff00"/>
    <rect id="Rectangle_6" data-name="Rectangle 6" width="2.314" height="2.836" transform="translate(11.377 13.109)" fill="#c0ff00"/>
    <path id="Path_3" data-name="Path 3" d="M22.249,36.938l-2.582-1.491V32.465H21.98v1.646l1.425.823Z" transform="translate(-8.289 -13.684)" fill="#c0ff00"/>
    <rect id="Rectangle_7" data-name="Rectangle 7" width="2.314" height="2.837" transform="matrix(0.5, -0.866, 0.866, 0.5, 16.416, 24.672)" fill="#c0ff00"/>
    <path id="Path_4" data-name="Path 4" d="M39.45,44.91l-1.425-.823-1.157,2,2.582,1.491,2.583-1.491-1.157-2Z" transform="translate(-15.54 -18.582)" fill="#c0ff00"/>
    <rect id="Rectangle_8" data-name="Rectangle 8" width="2.837" height="2.314" transform="matrix(0.866, -0.5, 0.5, 0.866, 27.793, 24.087)" fill="#c0ff00"/>
    <path id="Path_5" data-name="Path 5" d="M57.96,32.466v1.646l-1.425.823,1.156,2,2.583-1.491V32.466Z" transform="translate(-23.829 -13.684)" fill="#c0ff00"/>
    <rect id="Rectangle_9" data-name="Rectangle 9" width="2.315" height="2.836" transform="translate(34.131 13.109)" fill="#c0ff00"/>
    <path id="Path_6" data-name="Path 6" d="M56.534,12.029l1.425.823V14.5h2.315V11.516l-2.582-1.491Z" transform="translate(-23.829 -4.225)" fill="#c0ff00"/>
    <rect id="Rectangle_10" data-name="Rectangle 10" width="2.314" height="2.837" transform="translate(27.793 4.967) rotate(-59.994)" fill="#c0ff00"/>
    <path id="Path_7" data-name="Path 7" d="M36.868,1.584l1.157,2,1.425-.823,1.426.823,1.157-2L39.45.093Z" transform="translate(-15.54 -0.039)" fill="#c0ff00"/>
    <rect id="Rectangle_11" data-name="Rectangle 11" width="2.837" height="2.314" transform="translate(16.416 4.381) rotate(-30.001)" fill="#c0ff00"/>
  </g>
</svg>
