<svg xmlns="http://www.w3.org/2000/svg" width="102.508" height="133.996" viewBox="0 0 102.508 133.996">
  <g id="Group_49" data-name="Group 49" transform="translate(-981 -1318.004)">
    <g id="Group_36" data-name="Group 36" transform="translate(986 1354.492)">
      <g id="Group_39" data-name="Group 39" transform="translate(0 0)">
        <path id="Path_45" data-name="Path 45" d="M198.76,230a8.76,8.76,0,1,0,8.76,8.76,8.771,8.771,0,0,0-8.76-8.76m0,13.712a4.952,4.952,0,1,1,4.952-4.952,4.957,4.957,0,0,1-4.952,4.952" transform="translate(-153.815 -186.198)" fill="#fff"/>
        <path id="Path_46" data-name="Path 46" d="M62.57,135.963a1.9,1.9,0,0,0,1.9-1.9,29.616,29.616,0,0,1,29.582-29.582,1.9,1.9,0,1,0,0-3.809,33.429,33.429,0,0,0-33.391,33.391,1.9,1.9,0,0,0,1.9,1.9" transform="translate(-49.112 -81.495)" fill="#fff"/>
        <path id="Path_47" data-name="Path 47" d="M261.3,267.9a1.9,1.9,0,1,0-3.809,0A29.616,29.616,0,0,1,227.9,297.487a1.9,1.9,0,1,0,0,3.809A33.429,33.429,0,0,0,261.3,267.9" transform="translate(-182.959 -215.342)" fill="#fff"/>
        <path id="Path_48" data-name="Path 48" d="M97.508,1.9A1.9,1.9,0,0,0,95.06.079L72.841,6.691A1.9,1.9,0,0,0,71.48,8.517v7.761a44.978,44.978,0,0,0-51.389-1.169A1.9,1.9,0,1,0,22.2,18.281a41.1,41.1,0,0,1,49.28,2.876v7.722a8.246,8.246,0,0,0-12.7,6.949c0,.007,0,.014,0,.02a21.68,21.68,0,1,0,6.008,7.92,8.247,8.247,0,0,0,10.5-7.94V24.818a41.119,41.119,0,1,1-64.623,4.995A1.9,1.9,0,1,0,7.495,27.7a44.947,44.947,0,0,0,69.231,56.64A45.054,45.054,0,0,0,87.21,37.211a8.254,8.254,0,0,0,10.3-8V1.9ZM93.7,4.458V9.722L75.289,15.2V9.937ZM44.945,70.464a17.9,17.9,0,1,1,17.9-17.9,17.922,17.922,0,0,1-17.9,17.9M67.037,40.271a4.444,4.444,0,1,1,4.444-4.444,4.449,4.449,0,0,1-4.444,4.444m9.689-19.489q-.705-.705-1.437-1.373v-.234L93.7,13.7v8.57A8.244,8.244,0,0,0,81.5,26.4,45.5,45.5,0,0,0,76.726,20.782ZM89.255,33.658A4.444,4.444,0,1,1,93.7,29.215,4.449,4.449,0,0,1,89.255,33.658Z" transform="translate(0 0)" fill="#fff"/>
        <path id="Path_49" data-name="Path 49" d="M68.094,110a1.908,1.908,0,1,0-1.346-.56,1.913,1.913,0,0,0,1.346.56" transform="translate(-53.584 -85.967)" fill="#fff"/>
      </g>
    </g>
    <g id="Group_40" data-name="Group 40" transform="translate(981 1318.004)">
      <g id="Group_39-2" data-name="Group 39" transform="translate(0 0)">
        <path id="Path_45-2" data-name="Path 45" d="M193.147,230a3.147,3.147,0,1,0,3.147,3.147A3.15,3.15,0,0,0,193.147,230m0,4.925a1.779,1.779,0,1,1,1.779-1.779,1.781,1.781,0,0,1-1.779,1.779" transform="translate(-177.003 -214.267)" fill="#c0ff00"/>
        <path id="Path_46-2" data-name="Path 46" d="M61.35,113.345a.684.684,0,0,0,.684-.684A10.638,10.638,0,0,1,72.66,102.035a.684.684,0,0,0,0-1.368,12.007,12.007,0,0,0-11.994,11.994.684.684,0,0,0,.684.684" transform="translate(-56.516 -93.781)" fill="#c0ff00"/>
        <path id="Path_47-2" data-name="Path 47" d="M238.678,266.684a.684.684,0,1,0-1.368,0,10.638,10.638,0,0,1-10.626,10.626.684.684,0,1,0,0,1.368,12.007,12.007,0,0,0,11.994-11.994" transform="translate(-210.54 -247.804)" fill="#c0ff00"/>
        <path id="Path_48-2" data-name="Path 48" d="M35.023.684a.684.684,0,0,0-.879-.656L26.164,2.4a.684.684,0,0,0-.489.656V5.847a16.155,16.155,0,0,0-18.458-.42.684.684,0,1,0,.757,1.139A14.763,14.763,0,0,1,25.675,7.6v2.774a2.962,2.962,0,0,0-4.56,2.5s0,0,0,.007a7.787,7.787,0,1,0,2.158,2.845,2.962,2.962,0,0,0,3.77-2.852V8.914A14.769,14.769,0,1,1,3.831,10.708a.684.684,0,1,0-1.139-.758A16.144,16.144,0,0,0,27.559,30.295a16.183,16.183,0,0,0,3.766-16.929,2.965,2.965,0,0,0,3.7-2.872V.684ZM33.655,1.6V3.492L27.043,5.46V3.569ZM16.144,25.31a6.43,6.43,0,1,1,6.43-6.43,6.437,6.437,0,0,1-6.43,6.43m7.935-10.845a1.6,1.6,0,1,1,1.6-1.6,1.6,1.6,0,0,1-1.6,1.6m3.48-7q-.253-.253-.516-.493V6.887l6.613-1.968V8a2.961,2.961,0,0,0-4.382,1.484A16.344,16.344,0,0,0,27.559,7.464Zm4.5,4.625a1.6,1.6,0,1,1,1.6-1.6A1.6,1.6,0,0,1,32.059,12.089Z" transform="translate(0 0)" fill="#c0ff00"/>
        <path id="Path_49-2" data-name="Path 49" d="M66.874,107.559a.685.685,0,1,0-.484-.2.687.687,0,0,0,.484.2" transform="translate(-61.662 -98.926)" fill="#c0ff00"/>
      </g>
    </g>
  </g>
</svg>
