<svg xmlns="http://www.w3.org/2000/svg" width="118.892" height="131.227" viewBox="0 0 118.892 131.227">
  <g id="Group_26" data-name="Group 26" transform="translate(-665 -1320.773)">
    <g id="Group_24" data-name="Group 24" transform="translate(670 1362.191)">
      <g id="Group_30" data-name="Group 30">
        <path id="Path_34" data-name="Path 34" d="M113.892,41.992A14.021,14.021,0,0,0,96.814,28.319,45.175,45.175,0,0,0,67.542,5.386,2.224,2.224,0,0,0,66.5,9.71a40.462,40.462,0,0,1,9.037,75.257,23.523,23.523,0,0,0,5.134-14.744,23.944,23.944,0,0,0-.362-4.15A19.919,19.919,0,1,0,60.142,32.018a5.3,5.3,0,0,1-6.391,0A19.918,19.918,0,1,0,33.589,66.073a23.952,23.952,0,0,0-.362,4.307,23.568,23.568,0,0,0,5.241,14.642A40.462,40.462,0,0,1,47.419,9.7,2.224,2.224,0,0,0,46.376,5.38a45.178,45.178,0,0,0-29.3,22.939,14.012,14.012,0,1,0-4.512,27.609A44.979,44.979,0,0,0,56.946,93.943H57.1a44.979,44.979,0,0,0,44.224-38.015A14.03,14.03,0,0,0,113.892,41.992Zm-109.443,0a9.572,9.572,0,0,1,9.561-9.561,9.69,9.69,0,0,1,1.153.069,44.708,44.708,0,0,0-3.124,16.537q0,1.17.059,2.325A9.578,9.578,0,0,1,4.449,41.992Zm52.226,47.5A19.291,19.291,0,0,1,37.984,66.765a4.3,4.3,0,0,0-2.5-4.718A15.47,15.47,0,0,1,41.3,32.421c.137,0,.274-.005.411-.005a15.293,15.293,0,0,1,9.342,3.144,9.76,9.76,0,0,0,11.775,0,15.3,15.3,0,0,1,9.754-3.139,15.471,15.471,0,0,1,5.821,29.627l-.026.011a4.279,4.279,0,0,0-2.474,4.7,19.452,19.452,0,0,1,.31,3.465,19.271,19.271,0,0,1-19.3,19.271h0ZM101.794,51.36q.059-1.155.059-2.325A44.709,44.709,0,0,0,98.729,32.5a9.689,9.689,0,0,1,1.153-.069,9.562,9.562,0,0,1,1.912,18.93" transform="translate(0 -4.135)" fill="#fff"/>
        <path id="Path_35" data-name="Path 35" d="M246.189,3.068a2.222,2.222,0,0,0,4.181-.2,2.245,2.245,0,0,0-.832-2.454,2.249,2.249,0,0,0-2.5-.062,2.239,2.239,0,0,0-.852,2.72" transform="translate(-191.296 0)" fill="#fff"/>
        <path id="Path_36" data-name="Path 36" d="M231.141,281.367a3.3,3.3,0,0,1,3.3-3.3,2.224,2.224,0,0,0,0-4.449,7.724,7.724,0,0,0-5.524,2.321,7.724,7.724,0,0,0-5.524-2.321,2.224,2.224,0,1,0,0,4.449,3.3,3.3,0,0,1,3.3,3.3,2.224,2.224,0,0,0,4.449,0" transform="translate(-171.971 -212.752)" fill="#fff"/>
        <path id="Path_37" data-name="Path 37" d="M179.213,188.18a2.224,2.224,0,0,0-2.224,2.224v4.43a2.224,2.224,0,0,0,4.449,0V190.4a2.224,2.224,0,0,0-2.224-2.224" transform="translate(-137.619 -146.32)" fill="#fff"/>
        <path id="Path_38" data-name="Path 38" d="M317.235,197.059a2.224,2.224,0,0,0,2.224-2.224V190.4a2.224,2.224,0,1,0-4.449,0v4.43a2.224,2.224,0,0,0,2.224,2.224" transform="translate(-244.938 -146.32)" fill="#fff"/>
      </g>
    </g>
    <g id="Group_25" data-name="Group 25" transform="translate(665 1320.773)">
      <g id="Group_29" data-name="Group 29">
        <path id="Path_34-2" data-name="Path 34" d="M40.869,18.478a5.031,5.031,0,0,0-6.128-4.906,16.211,16.211,0,0,0-10.5-8.229.8.8,0,1,0-.375,1.552A14.519,14.519,0,0,1,27.1,33.9a8.441,8.441,0,0,0,1.842-5.291,8.592,8.592,0,0,0-.13-1.489A7.148,7.148,0,1,0,21.581,14.9a1.9,1.9,0,0,1-2.293,0,7.148,7.148,0,1,0-7.235,12.221,8.6,8.6,0,0,0-.13,1.546A8.457,8.457,0,0,0,13.8,33.919,14.52,14.52,0,0,1,17.016,6.892a.8.8,0,0,0-.374-1.552A16.212,16.212,0,0,0,6.129,13.572a5.028,5.028,0,1,0-1.619,9.907A16.14,16.14,0,0,0,20.435,37.12h.056A16.141,16.141,0,0,0,36.36,23.479,5.035,5.035,0,0,0,40.869,18.478Zm-39.273,0a3.435,3.435,0,0,1,3.431-3.431,3.477,3.477,0,0,1,.414.025A16.043,16.043,0,0,0,4.32,21.006q0,.42.021.834A3.437,3.437,0,0,1,1.6,18.478ZM20.338,35.523a6.922,6.922,0,0,1-6.707-8.156,1.542,1.542,0,0,0-.9-1.693,5.551,5.551,0,0,1,2.089-10.631l.147,0a5.488,5.488,0,0,1,3.352,1.128,3.5,3.5,0,0,0,4.226,0,5.491,5.491,0,0,1,3.5-1.127,5.551,5.551,0,0,1,2.089,10.631l-.009,0a1.536,1.536,0,0,0-.888,1.686,6.98,6.98,0,0,1,.111,1.243,6.915,6.915,0,0,1-6.925,6.915h-.088ZM36.528,21.84q.021-.414.021-.834a16.043,16.043,0,0,0-1.121-5.934,3.477,3.477,0,0,1,.414-.025,3.431,3.431,0,0,1,.686,6.793" transform="translate(0 -4.893)" fill="#c0ff00"/>
        <path id="Path_35-2" data-name="Path 35" d="M246.083,1.1a.8.8,0,0,0,1.5-.073.806.806,0,0,0-.3-.881.807.807,0,0,0-.9-.022.8.8,0,0,0-.306.976" transform="translate(-226.385 0)" fill="#c0ff00"/>
        <path id="Path_36-2" data-name="Path 36" d="M224.748,276.4a1.186,1.186,0,0,1,1.184-1.185.8.8,0,1,0,0-1.6,2.772,2.772,0,0,0-1.982.833,2.772,2.772,0,0,0-1.982-.833.8.8,0,0,0,0,1.6,1.186,1.186,0,0,1,1.184,1.185.8.8,0,1,0,1.6,0" transform="translate(-203.515 -251.776)" fill="#c0ff00"/>
        <path id="Path_37-2" data-name="Path 37" d="M177.787,188.18a.8.8,0,0,0-.8.8v1.59a.8.8,0,1,0,1.6,0v-1.59a.8.8,0,0,0-.8-.8" transform="translate(-162.861 -173.159)" fill="#c0ff00"/>
        <path id="Path_38-2" data-name="Path 38" d="M315.809,191.366a.8.8,0,0,0,.8-.8v-1.59a.8.8,0,1,0-1.6,0v1.59a.8.8,0,0,0,.8.8" transform="translate(-289.866 -173.159)" fill="#c0ff00"/>
      </g>
    </g>
  </g>
</svg>
