<svg xmlns="http://www.w3.org/2000/svg" width="105.841" height="137" viewBox="0 0 105.841 137">
  <g id="Group_50" data-name="Group 50" transform="translate(-480 -1315)">
    <g id="Group_21" data-name="Group 21" transform="translate(487 1347.107)">
      <g id="Group_28" data-name="Group 28">
        <path id="Path_19" data-name="Path 19" d="M20.034,27A4.034,4.034,0,1,1,16,31.034,4.033,4.033,0,0,1,20.034,27" transform="translate(16.275 27.463)" fill="#fff"/>
        <path id="Path_20" data-name="Path 20" d="M34.034,27A4.034,4.034,0,1,1,30,31.034,4.033,4.033,0,0,1,34.034,27" transform="translate(30.515 27.463)" fill="#fff"/>
        <path id="Path_21" data-name="Path 21" d="M35.585,35.574a2.025,2.025,0,1,0,3.449,1.432,2.076,2.076,0,0,0-.585-1.432,2.112,2.112,0,0,0-2.864,0" transform="translate(35.601 35.616)" fill="#fff"/>
        <path id="Path_22" data-name="Path 22" d="M33.465,33.454a2,2,0,0,0-.585,1.432,2.027,2.027,0,0,0,.585,1.432A2.121,2.121,0,0,0,34.9,36.9a2.025,2.025,0,0,0,1.432-3.449,2.112,2.112,0,0,0-2.864,0" transform="translate(33.444 33.459)" fill="#fff"/>
        <path id="Path_23" data-name="Path 23" d="M37.7,33.454a2.083,2.083,0,0,0-.585,1.432A2,2,0,0,0,39.137,36.9a2.025,2.025,0,0,0,1.432-3.449,2.112,2.112,0,0,0-2.864,0" transform="translate(37.757 33.459)" fill="#fff"/>
        <path id="Path_24" data-name="Path 24" d="M37.725,37.694a1.978,1.978,0,0,0-.605,1.432,2.032,2.032,0,0,0,2.017,2.017,2.025,2.025,0,0,0,1.432-3.449,2.086,2.086,0,0,0-2.844,0" transform="translate(37.757 37.772)" fill="#fff"/>
        <path id="Path_25" data-name="Path 25" d="M33.465,37.694a2.076,2.076,0,0,0-.585,1.432,2.017,2.017,0,1,0,.585-1.432" transform="translate(33.444 37.772)" fill="#fff"/>
        <path id="Path_26" data-name="Path 26" d="M13.465,35.694a2.076,2.076,0,0,0-.585,1.432,2.025,2.025,0,0,0,3.449,1.432,2.025,2.025,0,0,0-2.864-2.864" transform="translate(13.101 35.738)" fill="#fff"/>
        <path id="Path_27" data-name="Path 27" d="M11.345,33.574a1.96,1.96,0,0,0-.585,1.432,2.031,2.031,0,0,0,.585,1.432,2.121,2.121,0,0,0,1.432.585,2.16,2.16,0,0,0,1.432-.585,2.121,2.121,0,0,0,.585-1.432,2.009,2.009,0,0,0-.605-1.432,2.086,2.086,0,0,0-2.844,0" transform="translate(10.945 33.581)" fill="#fff"/>
        <path id="Path_28" data-name="Path 28" d="M17.017,37.024a2,2,0,0,0,2.017-2.017,2.076,2.076,0,0,0-.585-1.432,2.025,2.025,0,1,0-1.432,3.449" transform="translate(15.257 33.581)" fill="#fff"/>
        <path id="Path_29" data-name="Path 29" d="M18.449,37.814a2.025,2.025,0,0,0-2.864,2.864,2.04,2.04,0,0,0,1.432.585,1.959,1.959,0,0,0,1.412-.585,1.985,1.985,0,0,0,.605-1.432,2.083,2.083,0,0,0-.585-1.432" transform="translate(15.257 37.894)" fill="#fff"/>
        <path id="Path_30" data-name="Path 30" d="M11.345,37.814a2.024,2.024,0,0,0-.585,1.432,2,2,0,0,0,.585,1.432,2.04,2.04,0,0,0,1.432.585,1.959,1.959,0,0,0,1.412-.585,2,2,0,0,0,0-2.864,2.086,2.086,0,0,0-2.844,0" transform="translate(10.945 37.894)" fill="#fff"/>
        <path id="Path_31" data-name="Path 31" d="M92.564,51.06a43.414,43.414,0,0,0-30.907-33.2l.873-15.73A2.015,2.015,0,0,0,60.515,0H40.343a2.018,2.018,0,0,0-2.015,2.13l.845,15.209a43.125,43.125,0,0,0-32.9,33.723A12.434,12.434,0,0,0,0,61.524,11.065,11.065,0,0,0,6.471,71.567a44.339,44.339,0,0,0,85.9,0,11.063,11.063,0,0,0,6.471-10.043A12.437,12.437,0,0,0,92.564,51.06M58.383,4.034l-.845,15.217v0L56.59,36.309H44.269L43.3,18.814v0L42.475,4.034ZM90.006,68.172a2.013,2.013,0,0,0-1.315,1.454,40.3,40.3,0,0,1-78.54,0,2.016,2.016,0,0,0-1.315-1.454,7.044,7.044,0,0,1-4.8-6.649,8.307,8.307,0,0,1,4.781-7.2A2.019,2.019,0,0,0,10.056,52.8,39.137,39.137,0,0,1,39.4,21.4l.946,17.037a2.019,2.019,0,0,0,2.015,1.9H58.5a2.019,2.019,0,0,0,2.015-1.9l.916-16.474A39.4,39.4,0,0,1,88.788,52.8a2.023,2.023,0,0,0,1.241,1.525,8.309,8.309,0,0,1,4.781,7.2,7.049,7.049,0,0,1-4.8,6.649" fill="#fff"/>
        <path id="Path_32" data-name="Path 32" d="M25.841,32.661a2.018,2.018,0,1,0,2.521-3.151L18.277,21.441a2.017,2.017,0,0,0-2.519,3.151Z" transform="translate(15.258 21.361)" fill="#fff"/>
        <path id="Path_33" data-name="Path 33" d="M38.843,21.443,28.757,29.512a2.017,2.017,0,1,0,2.519,3.151l10.086-8.069a2.017,2.017,0,0,0-2.519-3.151" transform="translate(28.48 21.359)" fill="#fff"/>
      </g>
    </g>
    <g id="Group_22" data-name="Group 22" transform="translate(480 1315)">
      <g id="Group_27" data-name="Group 27">
        <path id="Path_19-2" data-name="Path 19" d="M17.446,27A1.446,1.446,0,1,1,16,28.446,1.445,1.445,0,0,1,17.446,27" transform="translate(-4.436 -7.485)" fill="#c0ff00"/>
        <path id="Path_20-2" data-name="Path 20" d="M31.446,27A1.446,1.446,0,1,1,30,28.446,1.445,1.445,0,0,1,31.446,27" transform="translate(-8.317 -7.485)" fill="#c0ff00"/>
        <path id="Path_21-2" data-name="Path 21" d="M35.21,35.215a.726.726,0,1,0,1.236.513.744.744,0,0,0-.21-.513.757.757,0,0,0-1.026,0" transform="translate(-9.703 -9.707)" fill="#c0ff00"/>
        <path id="Path_22-2" data-name="Path 22" d="M33.09,33.1a.715.715,0,0,0-.21.513.726.726,0,0,0,.21.513.76.76,0,0,0,.513.21.726.726,0,0,0,.513-1.236.757.757,0,0,0-1.026,0" transform="translate(-9.115 -9.119)" fill="#c0ff00"/>
        <path id="Path_23-2" data-name="Path 23" d="M37.33,33.1a.746.746,0,0,0-.21.513.716.716,0,0,0,.723.723.726.726,0,0,0,.513-1.236.757.757,0,0,0-1.026,0" transform="translate(-10.291 -9.119)" fill="#c0ff00"/>
        <path id="Path_24-2" data-name="Path 24" d="M37.337,37.335a.709.709,0,0,0-.217.513.728.728,0,0,0,.723.723.726.726,0,0,0,.513-1.236.748.748,0,0,0-1.019,0" transform="translate(-10.291 -10.295)" fill="#c0ff00"/>
        <path id="Path_25-2" data-name="Path 25" d="M33.09,37.335a.744.744,0,0,0-.21.513.723.723,0,1,0,.21-.513" transform="translate(-9.115 -10.295)" fill="#c0ff00"/>
        <path id="Path_26-2" data-name="Path 26" d="M13.09,35.335a.744.744,0,0,0-.21.513.723.723,0,1,0,.21-.513" transform="translate(-3.571 -9.74)" fill="#c0ff00"/>
        <path id="Path_27-2" data-name="Path 27" d="M10.97,33.215a.7.7,0,0,0-.21.513.728.728,0,0,0,.21.513.76.76,0,0,0,.513.21.774.774,0,0,0,.513-.21.76.76,0,0,0,.21-.513.72.72,0,0,0-.217-.513.748.748,0,0,0-1.019,0" transform="translate(-2.983 -9.152)" fill="#c0ff00"/>
        <path id="Path_28-2" data-name="Path 28" d="M15.723,34.451a.716.716,0,0,0,.723-.723.744.744,0,0,0-.21-.513.726.726,0,1,0-.513,1.236" transform="translate(-4.158 -9.152)" fill="#c0ff00"/>
        <path id="Path_29-2" data-name="Path 29" d="M16.236,37.455a.726.726,0,0,0-1.026,1.026.731.731,0,0,0,.513.21.7.7,0,0,0,.506-.21.711.711,0,0,0,.217-.513.746.746,0,0,0-.21-.513" transform="translate(-4.158 -10.328)" fill="#c0ff00"/>
        <path id="Path_30-2" data-name="Path 30" d="M10.97,37.455a.725.725,0,0,0-.21.513.715.715,0,0,0,.21.513.731.731,0,0,0,.513.21.7.7,0,0,0,.506-.21.716.716,0,0,0,0-1.026.748.748,0,0,0-1.019,0" transform="translate(-2.983 -10.328)" fill="#c0ff00"/>
        <path id="Path_31-2" data-name="Path 31" d="M33.167,18.3A15.556,15.556,0,0,0,22.092,6.4L22.405.763A.722.722,0,0,0,21.683,0H14.456a.723.723,0,0,0-.722.763l.3,5.45A15.452,15.452,0,0,0,2.249,18.3,4.455,4.455,0,0,0,0,22.045a3.965,3.965,0,0,0,2.319,3.6,15.887,15.887,0,0,0,30.779,0,3.964,3.964,0,0,0,2.319-3.6A4.456,4.456,0,0,0,33.167,18.3M20.919,1.446l-.3,5.453h0l-.34,6.111H15.862l-.348-6.269h0l-.295-5.3ZM32.25,24.427a.721.721,0,0,0-.471.521,14.442,14.442,0,0,1-28.142,0,.722.722,0,0,0-.471-.521,2.524,2.524,0,0,1-1.72-2.382,2.976,2.976,0,0,1,1.713-2.58.723.723,0,0,0,.445-.546A14.023,14.023,0,0,1,14.117,7.669l.339,6.1a.723.723,0,0,0,.722.682H20.96a.723.723,0,0,0,.722-.682l.328-5.9a14.118,14.118,0,0,1,9.8,11.048.725.725,0,0,0,.445.546,2.977,2.977,0,0,1,1.713,2.58,2.526,2.526,0,0,1-1.721,2.382" fill="#c0ff00"/>
        <path id="Path_32-2" data-name="Path 32" d="M18.885,25.178a.723.723,0,1,0,.9-1.129l-3.614-2.891a.723.723,0,0,0-.9,1.129Z" transform="translate(-4.159 -5.822)" fill="#c0ff00"/>
        <path id="Path_33-2" data-name="Path 33" d="M31.885,21.158l-3.614,2.891a.723.723,0,1,0,.9,1.129l3.614-2.891a.723.723,0,0,0-.9-1.129" transform="translate(-7.762 -5.821)" fill="#c0ff00"/>
      </g>
    </g>
  </g>
</svg>
