<svg xmlns="http://www.w3.org/2000/svg" width="96.971" height="136.084" viewBox="0 0 96.971 136.084">
  <g id="Group_34" data-name="Group 34" transform="translate(-818.617 -1315.916)">
    <g id="Group_32" data-name="Group 32" transform="translate(823.617 1348.998)">
      <g id="Group_37" data-name="Group 37">
        <path id="Path_39" data-name="Path 39" d="M87.891,165.677a8.047,8.047,0,1,0,8.047,8.047,8.057,8.057,0,0,0-8.047-8.047m0,12.071a4.024,4.024,0,1,1,4.023-4.024,4.028,4.028,0,0,1-4.023,4.024" transform="translate(-63.75 -132.282)" fill="#fff"/>
        <path id="Path_40" data-name="Path 40" d="M205.724,123.822a8.047,8.047,0,1,0-8.047,8.047,8.056,8.056,0,0,0,8.047-8.047m-12.07,0a4.024,4.024,0,1,1,4.024,4.024,4.028,4.028,0,0,1-4.024-4.024" transform="translate(-151.406 -92.438)" fill="#fff"/>
        <path id="Path_41" data-name="Path 41" d="M49.9,293.491a8.047,8.047,0,1,0,8.047-8.047,8.056,8.056,0,0,0-8.047,8.047m8.047-4.024a4.024,4.024,0,1,1-4.024,4.024,4.028,4.028,0,0,1,4.024-4.024" transform="translate(-39.844 -227.907)" fill="#fff"/>
        <path id="Path_42" data-name="Path 42" d="M139.728,373.335a8.047,8.047,0,1,0,8.047-8.047,8.056,8.056,0,0,0-8.047,8.047m12.071,0a4.024,4.024,0,1,1-4.024-4.023,4.028,4.028,0,0,1,4.024,4.023" transform="translate(-111.563 -291.657)" fill="#fff"/>
        <path id="Path_43" data-name="Path 43" d="M80.742,26.176a10.051,10.051,0,0,0,2.879-7.043c0-4.787-6.964-16-8.361-18.2a2.011,2.011,0,0,0-3.4,0c-1.22,1.921-6.689,10.723-8.052,16.108-12.644-5.195-25.824-5.053-37.4.463A44.7,44.7,0,0,0,2.339,47.089a2.012,2.012,0,1,0,3.908.956,40.863,40.863,0,0,1,21.9-26.91c10.974-5.23,23.584-5.127,35.617.264a10.084,10.084,0,0,0,4.8,6.46A101.993,101.993,0,0,0,65.931,46.6c-.213,3.2-.357,6.6-.428,10.119a24.009,24.009,0,0,0-12.04,22.687c.239,3.764.6,9.453-5.327,14.619a16.369,16.369,0,0,1-16.26,2.648A40.45,40.45,0,0,1,5.362,63.34a2.012,2.012,0,1,0-4,.454,44.3,44.3,0,0,0,29.167,36.67,20.391,20.391,0,0,0,20.25-3.408c7.423-6.471,6.952-13.91,6.7-17.907a19.992,19.992,0,0,1,7.977-17.6v.008c0,9.528.73,28.2,3.8,36.907.437,1.24,1.6,4.535,4.246,4.535s3.81-3.3,4.247-4.535c3.052-8.652,3.8-27.187,3.8-36.907,0-1.381-.012-2.74-.034-4.065.621-.008,1.25-.009,1.887,0a9.093,9.093,0,0,0,8.62-5.774c3.7-9.631-3.175-19.225-11.281-25.545M73.5,98.237c-3.25-6.952-4.024-27.892-4.024-36.677,0-1.124.026-3.6.027-3.6.047-3.064.15-6.039.307-8.879a30.447,30.447,0,0,0,3.749.232A30.248,30.248,0,0,0,77.2,49.09c.117,2.143.2,4.344.258,6.572.049,1.887.073,3.872.073,5.9,0,9.059-.818,29.822-4.024,36.677M70.077,45.052a94.707,94.707,0,0,1,2.313-15.93,9.882,9.882,0,0,0,2.231.012,94.966,94.966,0,0,1,2.31,15.933,26.6,26.6,0,0,1-6.853-.015m3.359-19.88a6.046,6.046,0,0,1-5.909-6.039c0-2.214,3.132-8.35,6.035-13.264,2.9,4.913,6.035,11.05,6.035,13.264a6.044,6.044,0,0,1-6.162,6.039M88.267,50.279a5.053,5.053,0,0,1-4.8,3.194c-.691-.011-1.376-.011-2.051,0-.078-2.332-.191-4.629-.338-6.849,0-.014,0-.027,0-.04a115.535,115.535,0,0,0-2.128-16.7c8.142,6.59,11.694,14.219,9.323,20.4" transform="translate(-1.079)" fill="#fff"/>
        <path id="Path_44" data-name="Path 44" d="M2.012,269.507A2.012,2.012,0,1,0,0,267.495a2.012,2.012,0,0,0,2.012,2.012" transform="translate(0 -211.97)" fill="#fff"/>
      </g>
    </g>
    <g id="Group_33" data-name="Group 33" transform="translate(818.617 1315.916)">
      <g id="Group_38" data-name="Group 38">
        <path id="Path_39-2" data-name="Path 39" d="M82.785,165.677a2.941,2.941,0,1,0,2.941,2.941,2.944,2.944,0,0,0-2.941-2.941m0,4.411a1.47,1.47,0,1,1,1.47-1.47,1.472,1.472,0,0,1-1.47,1.47" transform="translate(-73.962 -153.472)" fill="#c0ff00"/>
        <path id="Path_40-2" data-name="Path 40" d="M195.512,118.716a2.941,2.941,0,1,0-2.941,2.941,2.944,2.944,0,0,0,2.941-2.941m-4.411,0a1.47,1.47,0,1,1,1.47,1.47,1.472,1.472,0,0,1-1.47-1.47" transform="translate(-175.661 -107.246)" fill="#c0ff00"/>
        <path id="Path_41-2" data-name="Path 41" d="M49.9,288.385a2.941,2.941,0,1,0,2.941-2.941,2.944,2.944,0,0,0-2.941,2.941m2.941-1.471a1.47,1.47,0,1,1-1.47,1.471,1.472,1.472,0,0,1,1.47-1.471" transform="translate(-46.227 -264.417)" fill="#c0ff00"/>
        <path id="Path_42-2" data-name="Path 42" d="M139.728,368.229a2.941,2.941,0,1,0,2.941-2.941,2.944,2.944,0,0,0-2.941,2.941m4.411,0a1.47,1.47,0,1,1-1.47-1.47,1.472,1.472,0,0,1,1.47,1.47" transform="translate(-129.435 -338.379)" fill="#c0ff00"/>
        <path id="Path_43-2" data-name="Path 43" d="M30.365,9.566a3.673,3.673,0,0,0,1.052-2.574c0-1.749-2.545-5.847-3.055-6.651a.735.735,0,0,0-1.241,0,27.427,27.427,0,0,0-2.943,5.887A16.62,16.62,0,0,0,10.511,6.4a16.334,16.334,0,0,0-8.8,10.812.735.735,0,1,0,1.428.35,14.934,14.934,0,0,1,8-9.834,15.282,15.282,0,0,1,13.016.1,3.685,3.685,0,0,0,1.754,2.361,37.274,37.274,0,0,0-.961,6.848c-.078,1.17-.13,2.412-.156,3.7a8.774,8.774,0,0,0-4.4,8.291,5.782,5.782,0,0,1-1.947,5.343,5.982,5.982,0,0,1-5.942.968,14.783,14.783,0,0,1-9.69-12.182.735.735,0,1,0-1.461.166,16.189,16.189,0,0,0,10.659,13.4,7.452,7.452,0,0,0,7.4-1.245,7.236,7.236,0,0,0,2.448-6.544,7.306,7.306,0,0,1,2.915-6.431v0c0,3.482.267,10.306,1.389,13.488.16.453.584,1.657,1.552,1.657s1.392-1.2,1.552-1.657c1.116-3.162,1.389-9.936,1.389-13.488,0-.5,0-1-.013-1.486.227,0,.457,0,.69,0a3.323,3.323,0,0,0,3.15-2.11c1.351-3.52-1.16-7.026-4.123-9.336M27.72,35.9c-1.188-2.541-1.47-10.193-1.47-13.4,0-.411.01-1.315.01-1.317.017-1.12.055-2.207.112-3.245a11.127,11.127,0,0,0,1.37.085,11.054,11.054,0,0,0,1.328-.08c.043.783.074,1.588.094,2.4.018.69.027,1.415.027,2.156,0,3.311-.3,10.9-1.47,13.4M26.468,16.464a34.611,34.611,0,0,1,.845-5.822,3.612,3.612,0,0,0,.815,0,34.706,34.706,0,0,1,.844,5.823,9.722,9.722,0,0,1-2.5-.005M27.7,9.2a2.21,2.21,0,0,1-2.159-2.207c0-.809,1.145-3.052,2.206-4.847,1.061,1.8,2.206,4.038,2.206,4.847A2.209,2.209,0,0,1,27.7,9.2m5.42,9.176a1.847,1.847,0,0,1-1.754,1.167c-.252,0-.5,0-.75,0-.028-.852-.07-1.692-.124-2.5,0,0,0-.01,0-.015a42.224,42.224,0,0,0-.778-6.1c2.976,2.408,4.274,5.2,3.407,7.454" transform="translate(-1.252 0)" fill="#c0ff00"/>
        <path id="Path_44-2" data-name="Path 44" d="M.735,266.953A.735.735,0,1,0,0,266.218a.735.735,0,0,0,.735.735" transform="translate(0 -245.926)" fill="#c0ff00"/>
      </g>
    </g>
  </g>
</svg>
