<svg xmlns="http://www.w3.org/2000/svg" xmlns:xlink="http://www.w3.org/1999/xlink" width="121.908" height="136.084" viewBox="0 0 121.908 136.084">
  <defs>
    <clipPath id="clip-path">
      <rect id="Rectangle_17" data-name="Rectangle 17" width="116.908" height="102.246" fill="#fff"/>
    </clipPath>
    <clipPath id="clip-path-2">
      <rect id="Rectangle_17-2" data-name="Rectangle 17" width="42.433" height="37.111" fill="#c0ff00"/>
    </clipPath>
  </defs>
  <g id="Group_48" data-name="Group 48" transform="translate(-1137 -1315.916)">
    <g id="Group_42" data-name="Group 42" transform="translate(1142 1349.754)">
      <g id="Group_41" data-name="Group 41" clip-path="url(#clip-path)">
        <path id="Path_50" data-name="Path 50" d="M115.8,18.931a2.152,2.152,0,0,0-4.124,1.234,22.278,22.278,0,0,1,.932,6.389,21.939,21.939,0,0,1-6.916,16.126A34.061,34.061,0,0,1,101.7,26.553a34.07,34.07,0,0,1,3.985-16.122,22.372,22.372,0,0,1,3.4,4.109,2.152,2.152,0,1,0,3.621-2.328,26.569,26.569,0,0,0-47.216,4.981,45.153,45.153,0,0,0-20.494-4.934A45.024,45.024,0,0,0,2.364,71.68,2.152,2.152,0,1,0,6.442,70.3a40.6,40.6,0,0,1-2.081-10.9h22.3a60.615,60.615,0,0,1-8.171,28.718,41.311,41.311,0,0,1-9.5-11.9,2.152,2.152,0,0,0-3.806,2.011,45,45,0,0,0,84.8-20.985c0-1.372-.064-2.766-.191-4.152.188,0,.374.006.558.006A26.569,26.569,0,0,0,115.8,18.931M85.626,55.1h-22.3a62.567,62.567,0,0,1,2.983-17.245A26.735,26.735,0,0,0,85.424,52.649c.092.814.159,1.636.2,2.452m-10.6-12.422a21.94,21.94,0,0,1-6.915-16.125,21.944,21.944,0,0,1,6.915-16.125,34.6,34.6,0,0,1,0,32.251m8.292-16.125a38.248,38.248,0,0,0-4.857-18.8,22.255,22.255,0,0,1,23.8,0,38.241,38.241,0,0,0-4.857,18.8,38.238,38.238,0,0,0,4.857,18.8,22.256,22.256,0,0,1-23.8,0,38.244,38.244,0,0,0,4.857-18.8m2.309,32.852A40.758,40.758,0,0,1,71.5,88.124a60.6,60.6,0,0,1-8.171-28.718ZM68.068,90.772a40.406,40.406,0,0,1-20.922,7.114V59.406H59.018a64.819,64.819,0,0,0,9.05,31.367m-3.86-59.558A66.373,66.373,0,0,0,59.016,55.1H47.146V16.625a40.867,40.867,0,0,1,17.147,4.8,27,27,0,0,0-.085,9.789M4.364,55.1A40.766,40.766,0,0,1,18.491,26.382,60.626,60.626,0,0,1,26.662,55.1ZM21.919,23.733a40.4,40.4,0,0,1,20.922-7.114V55.1H30.97a64.852,64.852,0,0,0-9.051-31.369M42.841,59.406v38.48a40.405,40.405,0,0,1-20.922-7.114,64.839,64.839,0,0,0,9.05-31.366Z" fill="#fff"/>
      </g>
    </g>
    <g id="Group_43" data-name="Group 43" transform="translate(1137 1315.916)">
      <g id="Group_41-2" data-name="Group 41" clip-path="url(#clip-path-2)">
        <path id="Path_50-2" data-name="Path 50" d="M42.029,6.871a.781.781,0,0,0-1.5.448,8.086,8.086,0,0,1,.338,2.319,7.963,7.963,0,0,1-2.51,5.853,12.363,12.363,0,0,1-1.447-5.853A12.366,12.366,0,0,1,38.36,3.786a8.12,8.12,0,0,1,1.233,1.491.781.781,0,1,0,1.314-.845A9.644,9.644,0,0,0,23.77,6.24a16.389,16.389,0,0,0-7.439-1.791A16.342,16.342,0,0,0,.858,26.017a.781.781,0,1,0,1.48-.5,14.735,14.735,0,0,1-.755-3.954H9.677A22,22,0,0,1,6.712,31.985a14.994,14.994,0,0,1-3.447-4.318.781.781,0,0,0-1.382.73A16.332,16.332,0,0,0,32.662,20.78c0-.5-.023-1-.069-1.507l.2,0a9.643,9.643,0,0,0,9.234-12.4M31.079,20H22.984a22.709,22.709,0,0,1,1.083-6.259,9.7,9.7,0,0,0,6.939,5.369c.033.3.058.594.073.89M27.23,15.491a7.963,7.963,0,0,1-2.51-5.853,7.965,7.965,0,0,1,2.51-5.853,12.559,12.559,0,0,1,0,11.706m3.01-5.853a13.883,13.883,0,0,0-1.763-6.824,8.078,8.078,0,0,1,8.637,0,13.88,13.88,0,0,0-1.763,6.824,13.879,13.879,0,0,0,1.763,6.824,8.078,8.078,0,0,1-8.637,0A13.881,13.881,0,0,0,30.24,9.638m.838,11.924A14.794,14.794,0,0,1,25.95,31.985a22,22,0,0,1-2.966-10.423ZM24.706,32.947a14.666,14.666,0,0,1-7.594,2.582V21.562h4.309a23.527,23.527,0,0,0,3.285,11.385M23.3,11.33A24.091,24.091,0,0,0,21.421,20H17.112V6.034a14.833,14.833,0,0,1,6.224,1.743A9.8,9.8,0,0,0,23.3,11.33M1.584,20A14.8,14.8,0,0,1,6.712,9.576,22.005,22.005,0,0,1,9.677,20ZM7.956,8.614A14.664,14.664,0,0,1,15.55,6.032V20H11.241A23.539,23.539,0,0,0,7.956,8.614M15.55,21.562V35.529a14.666,14.666,0,0,1-7.594-2.582,23.534,23.534,0,0,0,3.285-11.385Z" transform="translate(0 0)" fill="#c0ff00"/>
      </g>
    </g>
  </g>
</svg>
