<svg xmlns="http://www.w3.org/2000/svg" xmlns:xlink="http://www.w3.org/1999/xlink" width="95.16" height="136.084" viewBox="0 0 95.16 136.084">
  <defs>
    <clipPath id="clip-path">
      <rect id="Rectangle_18" data-name="Rectangle 18" width="90.16" height="113.886" fill="#fff"/>
    </clipPath>
    <clipPath id="clip-path-2">
      <rect id="Rectangle_18-2" data-name="Rectangle 18" width="29.38" height="37.111" fill="#c0ff00"/>
    </clipPath>
  </defs>
  <g id="Group_47" data-name="Group 47" transform="translate(-1300 -1315.916)">
    <g id="Group_45" data-name="Group 45" transform="translate(1305 1338.113)">
      <g id="Group_44" data-name="Group 44" clip-path="url(#clip-path)">
        <path id="Path_51" data-name="Path 51" d="M274,175.055a30.7,30.7,0,0,1,3.113,2.325,31.414,31.414,0,0,1,2.776,2.667,31.558,31.558,0,0,1,6.074,9.714,2.372,2.372,0,0,0,4.413-1.742,34.822,34.822,0,0,0-1.87-4,37.539,37.539,0,0,0-2.335-3.744,38.12,38.12,0,0,0-2.781-3.426,36.415,36.415,0,0,0-3.2-3.08,35.882,35.882,0,0,0-3.592-2.681,2.372,2.372,0,0,0-2.6,3.972" transform="translate(-212.217 -132.732)" fill="#fff"/>
        <path id="Path_52" data-name="Path 52" d="M90.061,66.96c0-.028,0-.062,0-.09,0,0,0-.01,0-.014A45.5,45.5,0,0,0,66.875,28.771a2.733,2.733,0,0,0-.441-.114v-7.3a7.126,7.126,0,0,0-7.118-7.118H56.944V7.118A7.126,7.126,0,0,0,49.826,0H40.335a7.126,7.126,0,0,0-7.118,7.118v7.118H30.844a7.126,7.126,0,0,0-7.118,7.118v7.317a2.127,2.127,0,0,0-.38.1,45.421,45.421,0,0,0,21.738,85.116h.09A45.291,45.291,0,0,0,90.16,68.393c0-.484-.085-.954-.1-1.433M37.962,7.118a2.38,2.38,0,0,1,2.373-2.373h9.491A2.38,2.38,0,0,1,52.2,7.118v7.118H37.962Zm-9.49,14.236a2.38,2.38,0,0,1,2.373-2.373H59.316a2.38,2.38,0,0,1,2.373,2.373v7.118H28.472Zm-3.36,11.863H65.091a40.735,40.735,0,0,1,20.12,32.2,59.252,59.252,0,0,1-18.412.47c-6.928-.935-12.513-3.545-18.426-6.3-5.281-2.472-10.748-5.021-17.3-6.344a59.368,59.368,0,0,0-23.508.432A40.228,40.228,0,0,1,25.112,33.217m20.053,75.924-.081,2.373v-2.373A40.5,40.5,0,0,1,5.932,58.908a54.72,54.72,0,0,1,24.206-1.015c5.993,1.21,10.966,3.53,16.229,5.989,5.974,2.79,12.157,5.675,19.8,6.705a63.439,63.439,0,0,0,8.551.574,63.316,63.316,0,0,0,10.62-.982,40.5,40.5,0,0,1-40.169,38.963" transform="translate(0)" fill="#fff"/>
      </g>
    </g>
    <g id="Group_46" data-name="Group 46" transform="translate(1300 1315.916)">
      <g id="Group_44-2" data-name="Group 44" clip-path="url(#clip-path-2)">
        <path id="Path_51-2" data-name="Path 51" d="M273.275,172.121a10,10,0,0,1,1.014.758,10.235,10.235,0,0,1,.9.869,10.283,10.283,0,0,1,1.979,3.165.773.773,0,0,0,1.438-.568A11.354,11.354,0,0,0,278,175.04a12.229,12.229,0,0,0-.761-1.22,12.423,12.423,0,0,0-.906-1.116,11.869,11.869,0,0,0-1.044-1,11.7,11.7,0,0,0-1.171-.874.773.773,0,0,0-.846,1.294" transform="translate(-253.143 -158.33)" fill="#c0ff00"/>
        <path id="Path_52-2" data-name="Path 52" d="M29.347,21.82c0-.009,0-.02,0-.029s0,0,0,0a14.825,14.825,0,0,0-7.554-12.41.891.891,0,0,0-.144-.037V6.958a2.322,2.322,0,0,0-2.319-2.319h-.773V2.319A2.322,2.322,0,0,0,16.236,0H13.144a2.322,2.322,0,0,0-2.319,2.319V4.639h-.773A2.322,2.322,0,0,0,7.732,6.958V9.343a.693.693,0,0,0-.124.032,14.8,14.8,0,0,0,7.084,27.736h.029A14.758,14.758,0,0,0,29.38,22.287c0-.158-.028-.311-.032-.467M12.37,2.319a.775.775,0,0,1,.773-.773h3.093a.775.775,0,0,1,.773.773V4.639H12.37ZM9.278,6.958a.775.775,0,0,1,.773-.773h9.278a.775.775,0,0,1,.773.773V9.278H9.278ZM8.183,10.824H21.211a13.274,13.274,0,0,1,6.556,10.493,19.308,19.308,0,0,1-6,.153,20.187,20.187,0,0,1-6-2.053,24.4,24.4,0,0,0-5.638-2.067,19.346,19.346,0,0,0-7.66.141,13.109,13.109,0,0,1,5.718-6.666m6.535,24.741-.026.773v-.773A13.2,13.2,0,0,1,1.933,19.2a17.831,17.831,0,0,1,7.888-.331,22.912,22.912,0,0,1,5.288,1.951A21.659,21.659,0,0,0,21.56,23a20.672,20.672,0,0,0,2.786.187,20.632,20.632,0,0,0,3.461-.32,13.2,13.2,0,0,1-13.089,12.7" transform="translate(0)" fill="#c0ff00"/>
      </g>
    </g>
  </g>
</svg>
