<svg xmlns="http://www.w3.org/2000/svg" xmlns:xlink="http://www.w3.org/1999/xlink" width="68.495" height="77.886" viewBox="0 0 68.495 77.886">
  <defs>
    <clipPath id="clip-path">
      <rect id="Rectangle_22" data-name="Rectangle 22" width="53.12" height="66.4" fill="none"/>
    </clipPath>
  </defs>
  <g id="Group_54" data-name="Group 54" transform="matrix(0.966, -0.259, 0.259, 0.966, 0, 13.749)">
    <g id="Group_53" data-name="Group 53" clip-path="url(#clip-path)">
      <path id="Path_61" data-name="Path 61" d="M49.136,21.248H19.92V15.936a6.64,6.64,0,1,1,13.28,0,1.328,1.328,0,0,0,1.327,1.328h6.641A1.328,1.328,0,0,0,42.5,15.937h0a15.936,15.936,0,1,0-31.872,0v5.312H3.984A3.988,3.988,0,0,0,0,25.232V62.416A3.988,3.988,0,0,0,3.984,66.4H49.136a3.988,3.988,0,0,0,3.984-3.984V25.232a3.988,3.988,0,0,0-3.984-3.984M13.28,15.936a13.28,13.28,0,0,1,26.494-1.328H35.761a9.3,9.3,0,0,0-18.5,1.328v5.312H13.28Zm37.184,46.48a1.329,1.329,0,0,1-1.328,1.328H3.984a1.329,1.329,0,0,1-1.328-1.328V25.232A1.329,1.329,0,0,1,3.984,23.9H49.136a1.329,1.329,0,0,1,1.328,1.328Z" fill="#fff"/>
      <path id="Path_62" data-name="Path 62" d="M280,89.328a1.328,1.328,0,0,0,1.327,1.328h3.985a1.328,1.328,0,1,0,0-2.656h-3.984A1.328,1.328,0,0,0,280,89.327Z" transform="translate(-233.52 -73.392)" fill="#b4ef02"/>
      <path id="Path_63" data-name="Path 63" d="M270.56,47.828l2.817-2.818a1.328,1.328,0,1,0-1.878-1.878l-2.817,2.818a1.328,1.328,0,0,0,1.878,1.878" transform="translate(-223.758 -35.648)" fill="#b4ef02"/>
      <path id="Path_64" data-name="Path 64" d="M114.351,207.139a1.328,1.328,0,0,0-2.079,1.654l0,.006,5.312,6.64a1.328,1.328,0,0,0,2.024.058l11.952-13.28a1.328,1.328,0,1,0-1.974-1.777l-10.906,12.117Z" transform="translate(-93.395 -166.801)" fill="#b4ef02"/>
      <path id="Path_65" data-name="Path 65" d="M98.213,187.037a1.328,1.328,0,0,0-1.1,1.521,11.983,11.983,0,1,1-7.7-9.312,1.328,1.328,0,1,0,.909-2.5,14.734,14.734,0,1,0,9.409,11.387,1.324,1.324,0,0,0-1.514-1.1Z" transform="translate(-58.768 -146.64)" fill="#b4ef02"/>
    </g>
  </g>
</svg>
