<svg xmlns="http://www.w3.org/2000/svg" xmlns:xlink="http://www.w3.org/1999/xlink" width="79.597" height="79.605" viewBox="0 0 79.597 79.605">
  <defs>
    <clipPath id="clip-path">
      <rect id="Rectangle_23" data-name="Rectangle 23" width="64.988" height="65" fill="none"/>
    </clipPath>
  </defs>
  <g id="Group_56" data-name="Group 56" transform="matrix(0.966, -0.259, 0.259, 0.966, 0, 16.82)">
    <g id="Group_55" data-name="Group 55" clip-path="url(#clip-path)">
      <path id="Path_66" data-name="Path 66" d="M148.972,136.043a14.675,14.675,0,1,0,14.675,14.675,14.675,14.675,0,0,0-14.675-14.675m2.236,22.085v4.957a11.968,11.968,0,0,1-4.475,0v-4.956a1.048,1.048,0,0,0-.586-.941,6.452,6.452,0,0,1-1.04-10.969v5.547a1.048,1.048,0,0,0,1.048,1.048h5.629a1.048,1.048,0,0,0,1.048-1.048h0v-5.559a6.45,6.45,0,0,1-1.039,10.981A1.048,1.048,0,0,0,151.207,158.128Zm2.1,4.383v-3.758a8.543,8.543,0,0,0-1.127-15.3,1.048,1.048,0,0,0-1.441.971v6.289H147.2v-6.279a1.048,1.048,0,0,0-1.441-.971,8.544,8.544,0,0,0-1.126,15.286v3.757a12.578,12.578,0,1,1,8.668,0Z" transform="translate(-116.701 -118.218)" fill="#b4ef02"/>
      <path id="Path_67" data-name="Path 67" d="M118.607,107.88a.972.972,0,0,1,.907-.727h1.361a1.048,1.048,0,0,0,1.029-.848,21.744,21.744,0,0,0,0-8.473,1.048,1.048,0,0,0-1.029-.847h-1.361a.972.972,0,0,1-.907-.726,19.175,19.175,0,0,0-1.253-3.016.971.971,0,0,1,.128-1.157l.968-.968a1.049,1.049,0,0,0,.128-1.327,22,22,0,0,0-5.991-5.992,1.05,1.05,0,0,0-1.327.128l-.968.968a.973.973,0,0,1-1.158.128,19.126,19.126,0,0,0-3.016-1.253.971.971,0,0,1-.726-.907V81.5a1.048,1.048,0,0,0-.848-1.029,21.856,21.856,0,0,0-8.474,0,1.048,1.048,0,0,0-.847,1.029v1.361a.971.971,0,0,1-.726.907,19.126,19.126,0,0,0-3.016,1.253.974.974,0,0,1-1.158-.128l-.968-.968A1.05,1.05,0,0,0,88.03,83.8a22,22,0,0,0-5.991,5.992,1.049,1.049,0,0,0,.128,1.327l.968.967a.973.973,0,0,1,.128,1.158,19.191,19.191,0,0,0-1.253,3.015.972.972,0,0,1-.907.727H79.742a1.048,1.048,0,0,0-1.029.847,21.749,21.749,0,0,0,0,8.473,1.048,1.048,0,0,0,1.029.848H81.1a.972.972,0,0,1,.907.726,19.151,19.151,0,0,0,1.253,3.015.973.973,0,0,1-.128,1.158l-.968.968a1.049,1.049,0,0,0-.128,1.327,22,22,0,0,0,5.991,5.992,1.047,1.047,0,0,0,1.327-.128l.968-.968a.976.976,0,0,1,1.158-.128,19.138,19.138,0,0,0,3.016,1.253.971.971,0,0,1,.726.907v1.361a1.048,1.048,0,0,0,.848,1.029,21.75,21.75,0,0,0,8.474,0,1.048,1.048,0,0,0,.848-1.029v-1.361a.971.971,0,0,1,.726-.907,19.151,19.151,0,0,0,3.016-1.253.975.975,0,0,1,1.158.128l.968.968a1.049,1.049,0,0,0,1.327.129,22,22,0,0,0,5.991-5.992,1.049,1.049,0,0,0-.128-1.327l-.968-.967a.972.972,0,0,1-.127-1.159,19.223,19.223,0,0,0,1.252-3.015m-2-.635a17.1,17.1,0,0,1-1.114,2.683,3.069,3.069,0,0,0,.5,3.608l.345.344a19.891,19.891,0,0,1-4.226,4.226l-.345-.345a3.067,3.067,0,0,0-3.606-.506,17.045,17.045,0,0,1-2.684,1.115,3.071,3.071,0,0,0-2.188,2.905v.48a19.561,19.561,0,0,1-5.976,0v-.48a3.071,3.071,0,0,0-2.187-2.905,17.051,17.051,0,0,1-2.684-1.115,3.068,3.068,0,0,0-3.606.506l-.345.344a19.9,19.9,0,0,1-4.226-4.225l.345-.344a3.072,3.072,0,0,0,.507-3.607,16.913,16.913,0,0,1-1.116-2.684,3.071,3.071,0,0,0-2.905-2.187h-.48a19.488,19.488,0,0,1,0-5.975h.48a3.071,3.071,0,0,0,2.905-2.188,16.972,16.972,0,0,1,1.116-2.684,3.072,3.072,0,0,0-.507-3.607l-.345-.344A19.9,19.9,0,0,1,88.5,86.033l.345.344a3.071,3.071,0,0,0,3.606.506,17.052,17.052,0,0,1,2.684-1.115,3.071,3.071,0,0,0,2.187-2.905v-.48a19.561,19.561,0,0,1,5.976,0v.48a3.071,3.071,0,0,0,2.188,2.905,17.046,17.046,0,0,1,2.684,1.115,3.069,3.069,0,0,0,3.606-.506l.345-.344a19.9,19.9,0,0,1,4.226,4.225L116,90.6a3.068,3.068,0,0,0-.506,3.606,17.058,17.058,0,0,1,1.115,2.684h0a3.071,3.071,0,0,0,2.905,2.188h.48a19.489,19.489,0,0,1,0,5.975h-.48A3.071,3.071,0,0,0,116.609,107.244Z" transform="translate(-68.038 -69.569)" fill="#fff"/>
      <path id="Path_68" data-name="Path 68" d="M386.482,45.284a5.241,5.241,0,1,0-5.241,5.241,5.241,5.241,0,0,0,5.241-5.241m-8.386,0a3.145,3.145,0,1,1,3.145,3.145,3.145,3.145,0,0,1-3.145-3.145" transform="translate(-326.735 -34.796)" fill="#b4ef02"/>
      <path id="Path_69" data-name="Path 69" d="M50.482,381.284a5.241,5.241,0,1,0-5.241,5.241,5.241,5.241,0,0,0,5.241-5.241m-8.386,0a3.145,3.145,0,1,1,3.145,3.145,3.145,3.145,0,0,1-3.145-3.145" transform="translate(-34.759 -326.772)" fill="#b4ef02"/>
      <path id="Path_70" data-name="Path 70" d="M6.162,47.7A30.406,30.406,0,0,1,47.692,6.168l1.05-1.815A32.5,32.5,0,0,0,4.348,48.748Z" transform="translate(0 0)" fill="#fff"/>
      <path id="Path_71" data-name="Path 71" d="M166.749,125.085a30.406,30.406,0,0,1-41.505,41.544l-1.048,1.816a32.5,32.5,0,0,0,44.367-44.41Z" transform="translate(-107.923 -107.783)" fill="#fff"/>
    </g>
  </g>
</svg>
